<?xml version="1.0" encoding="UTF-8"?>
<!DOCTYPE svg PUBLIC "-//W3C//DTD SVG 1.1//EN" "http://www.w3.org/Graphics/SVG/1.1/DTD/svg11.dtd">
<svg xmlns="http://www.w3.org/2000/svg" version="1.1" width="640px" height="392px" style="shape-rendering:geometricPrecision; text-rendering:geometricPrecision; image-rendering:optimizeQuality; fill-rule:evenodd; clip-rule:evenodd" xmlns:xlink="http://www.w3.org/1999/xlink">
<g><path style="opacity:0.981" fill="#323232" d="M 426.5,-0.5 C 428.5,-0.5 430.5,-0.5 432.5,-0.5C 444.608,6.72581 456.942,13.7258 469.5,20.5C 470.584,21.6651 471.417,22.9984 472,24.5C 472.667,84.8333 472.667,145.167 472,205.5C 469.805,209.359 466.638,212.192 462.5,214C 445.167,224 427.833,234 410.5,244C 408.232,245.552 405.732,246.385 403,246.5C 398.668,245.2 394.501,243.367 390.5,241C 373.833,231.333 357.167,221.667 340.5,212C 338.391,210.859 336.558,209.359 335,207.5C 333.371,182.216 333.038,156.883 334,131.5C 334.69,128.804 336.19,126.637 338.5,125C 358.833,113.333 379.167,101.667 399.5,90C 401.833,89.3333 404.167,89.3333 406.5,90C 412.167,93.1667 417.833,96.3333 423.5,99.5C 424.086,99.2907 424.586,98.9574 425,98.5C 425.181,65.4583 425.681,32.4583 426.5,-0.5 Z M 401.5,142.5 C 409.908,145.729 417.741,150.063 425,155.5C 425.667,163.833 425.667,172.167 425,180.5C 417.815,185.092 410.482,189.425 403,193.5C 395.518,189.425 388.185,185.092 381,180.5C 380.333,172.167 380.333,163.833 381,155.5C 387.982,151.267 394.816,146.934 401.5,142.5 Z"/></g>
<g><path style="opacity:0.98" fill="#323232" d="M -0.5,228.5 C -0.5,194.5 -0.5,160.5 -0.5,126.5C 20.3521,113.828 41.3521,101.328 62.5,89C 65.366,87.5432 68.366,87.2099 71.5,88C 92.9976,100.248 114.331,112.748 135.5,125.5C 136,126.5 136.5,127.5 137,128.5C 137.667,161.5 137.667,194.5 137,227.5C 135.192,229.396 133.025,229.896 130.5,229C 117.256,222.131 104.423,214.631 92,206.5C 90.6939,189.258 90.0273,171.924 90,154.5C 84.094,149.46 77.594,145.294 70.5,142C 68.8333,141.333 67.1667,141.333 65.5,142C 60.1667,145 54.8333,148 49.5,151C 47.9512,152.214 46.7845,153.714 46,155.5C 45.6667,172.167 45.3333,188.833 45,205.5C 43.8333,206.667 42.6667,207.833 41.5,209C 29.6705,215.414 18.0038,222.08 6.5,229C 4.07085,229.703 1.73752,229.537 -0.5,228.5 Z"/></g>
<g><path style="opacity:0.976" fill="#323232" d="M 639.5,127.5 C 639.5,135.833 639.5,144.167 639.5,152.5C 625.963,161.864 611.796,170.197 597,177.5C 594.812,177.646 593.479,176.646 593,174.5C 592.831,167.476 592.331,160.476 591.5,153.5C 584.663,149.247 577.663,145.247 570.5,141.5C 563.337,145.247 556.337,149.247 549.5,153.5C 548.167,162.5 548.167,171.5 549.5,180.5C 570.004,192.586 590.67,204.42 611.5,216C 613.673,217.865 614.007,220.031 612.5,222.5C 602.664,228.586 592.664,234.419 582.5,240C 576.187,244.957 569.52,245.624 562.5,242C 542.833,230.5 523.167,219 503.5,207.5C 502.902,206.205 502.402,204.872 502,203.5C 501.333,179.167 501.333,154.833 502,130.5C 502.402,129.128 502.902,127.795 503.5,126.5C 524.669,113.748 546.002,101.248 567.5,89C 571.452,88.0885 575.119,88.7552 578.5,91C 599.192,102.675 619.526,114.841 639.5,127.5 Z"/></g>
<g><path style="opacity:1" fill="#73aa62" d="M 233.5,89.5 C 234.978,89.238 236.311,89.5713 237.5,90.5C 239.445,93.3933 241.111,96.3933 242.5,99.5C 242.168,147.003 242.501,194.336 243.5,241.5C 241.97,243.346 239.97,244.346 237.5,244.5C 234.137,239.784 231.137,234.784 228.5,229.5C 229.167,206.836 229.5,184.002 229.5,161C 229.5,137.823 228.833,114.99 227.5,92.5C 229.03,90.6535 231.03,89.6535 233.5,89.5 Z"/></g>
<g><path style="opacity:1" fill="#77b261" d="M 227.5,92.5 C 228.833,114.99 229.5,137.823 229.5,161C 229.5,184.002 229.167,206.836 228.5,229.5C 224.566,222.631 220.899,215.631 217.5,208.5C 217.5,171.833 217.5,135.167 217.5,98.5C 220.494,96.0002 223.827,94.0002 227.5,92.5 Z"/></g>
<g><path style="opacity:1" fill="#649c59" d="M 233.5,89.5 C 236.597,88.2124 239.597,88.7124 242.5,91C 262.194,102.512 281.861,114.012 301.5,125.5C 301.245,128.016 300.411,130.35 299,132.5C 293,143.167 287,153.833 281,164.5C 277.258,158.12 273.591,151.786 270,145.5C 269.5,172.498 269.333,199.498 269.5,226.5C 265.167,229.669 260.5,232.336 255.5,234.5C 254.667,196.002 254.167,157.335 254,118.5C 250.303,111.996 246.47,105.662 242.5,99.5C 241.111,96.3933 239.445,93.3933 237.5,90.5C 236.311,89.5713 234.978,89.238 233.5,89.5 Z"/></g>
<g><path style="opacity:1" fill="#6da55f" d="M 242.5,99.5 C 246.47,105.662 250.303,111.996 254,118.5C 254.167,157.335 254.667,196.002 255.5,234.5C 251.836,237.335 247.836,239.668 243.5,241.5C 242.501,194.336 242.168,147.003 242.5,99.5 Z"/></g>
<g><path style="opacity:1" fill="#74b659" d="M 217.5,98.5 C 217.5,135.167 217.5,171.833 217.5,208.5C 214.343,204.194 211.676,199.528 209.5,194.5C 210.167,179.504 210.5,164.337 210.5,149C 210.499,133.485 209.833,118.318 208.5,103.5C 211.008,101.076 214.008,99.4097 217.5,98.5 Z"/></g>
<g><path style="opacity:1" fill="#71b954" d="M 208.5,103.5 C 209.833,118.318 210.499,133.485 210.5,149C 210.5,164.337 210.167,179.504 209.5,194.5C 207.515,191.202 205.515,187.869 203.5,184.5C 204.184,157.961 204.85,131.294 205.5,104.5C 206.391,103.89 207.391,103.557 208.5,103.5 Z"/></g>
<g><path style="opacity:1" fill="#6ebb4d" d="M 205.5,104.5 C 204.85,131.294 204.184,157.961 203.5,184.5C 201.088,179.341 198.421,174.341 195.5,169.5C 196.662,150.338 196.829,131.004 196,111.5C 194.67,112.582 193.17,113.249 191.5,113.5C 196.13,110.514 200.797,107.514 205.5,104.5 Z"/></g>
<g><path style="opacity:1" fill="#6abe47" d="M 195.5,169.5 C 194.833,168.167 194.167,166.833 193.5,165.5C 185.9,151.965 178.566,138.299 171.5,124.5C 177.873,120.313 184.539,116.647 191.5,113.5C 193.17,113.249 194.67,112.582 196,111.5C 196.829,131.004 196.662,150.338 195.5,169.5 Z"/></g>
<g><path style="opacity:0.97" fill="#55984c" d="M 171.5,124.5 C 178.566,138.299 185.9,151.965 193.5,165.5C 192.026,166.436 191.026,167.77 190.5,169.5C 182.5,165.5 174.5,161.5 166.5,157.5C 166.334,148.494 166.5,139.494 167,130.5C 167.566,127.771 169.066,125.771 171.5,124.5 Z"/></g>
<g><path style="opacity:0.959" fill="#689f63" d="M 568.5,151.5 C 574.149,152.571 579.315,154.904 584,158.5C 584.667,163.833 584.667,169.167 584,174.5C 579.891,177.764 575.391,180.431 570.5,182.5C 566.5,180.167 562.5,177.833 558.5,175.5C 557.337,169.863 557.17,164.196 558,158.5C 561.651,156.267 565.151,153.934 568.5,151.5 Z"/></g>
<g><path style="opacity:1" fill="#3e863d" d="M 193.5,165.5 C 194.167,166.833 194.833,168.167 195.5,169.5C 198.421,174.341 201.088,179.341 203.5,184.5C 205.515,187.869 207.515,191.202 209.5,194.5C 211.676,199.528 214.343,204.194 217.5,208.5C 220.899,215.631 224.566,222.631 228.5,229.5C 231.137,234.784 234.137,239.784 237.5,244.5C 236.399,245.598 235.066,245.765 233.5,245C 211.11,233.148 189.444,220.315 168.5,206.5C 173.53,198.782 178.197,190.782 182.5,182.5C 185.403,178.37 188.07,174.037 190.5,169.5C 191.026,167.77 192.026,166.436 193.5,165.5 Z"/></g>
<g><path style="opacity:0.978" fill="#579f49" d="M 166.5,157.5 C 174.5,161.5 182.5,165.5 190.5,169.5C 188.07,174.037 185.403,178.37 182.5,182.5C 177.886,178.518 172.552,175.518 166.5,173.5C 166.5,168.167 166.5,162.833 166.5,157.5 Z"/></g>
<g><path style="opacity:0.999" fill="#4b8e46" d="M 301.5,125.5 C 302.315,126.429 303.148,127.429 304,128.5C 304.5,153.498 304.667,178.498 304.5,203.5C 298.441,194.399 292.608,185.066 287,175.5C 286.833,182.167 286.667,188.833 286.5,195.5C 286.503,202.535 287.17,209.202 288.5,215.5C 282.666,219.921 276.332,223.588 269.5,226.5C 269.333,199.498 269.5,172.498 270,145.5C 273.591,151.786 277.258,158.12 281,164.5C 287,153.833 293,143.167 299,132.5C 300.411,130.35 301.245,128.016 301.5,125.5 Z"/></g>
<g><path style="opacity:0.938" fill="#58a647" d="M 166.5,173.5 C 172.552,175.518 177.886,178.518 182.5,182.5C 178.197,190.782 173.53,198.782 168.5,206.5C 167.732,205.737 167.232,204.737 167,203.5C 166.5,193.506 166.334,183.506 166.5,173.5 Z"/></g>
<g><path style="opacity:1" fill="#3f873e" d="M 304.5,203.5 C 303.763,205.305 302.763,206.971 301.5,208.5C 297.272,211.113 292.939,213.446 288.5,215.5C 287.17,209.202 286.503,202.535 286.5,195.5C 286.667,188.833 286.833,182.167 287,175.5C 292.608,185.066 298.441,194.399 304.5,203.5 Z"/></g>
<g><path style="opacity:0.938" fill="#689f62" d="M 321.5,391.5 C 317.833,391.5 314.167,391.5 310.5,391.5C 303.563,387.359 296.563,383.193 289.5,379C 288.663,377.989 288.33,376.822 288.5,375.5C 292.134,374.603 295.634,373.27 299,371.5C 304.667,374.5 310.333,377.5 316,380.5C 335.069,369.381 354.236,358.381 373.5,347.5C 374.666,324.507 374.833,301.507 374,278.5C 354.667,267.167 335.333,255.833 316,244.5C 296.418,255.707 276.918,267.04 257.5,278.5C 256.334,301.159 256.167,323.826 257,346.5C 262.585,350.377 268.418,353.877 274.5,357C 279.731,358.724 283.565,357.224 286,352.5C 286.333,329.5 286.667,306.5 287,283.5C 290.333,282.167 293.667,282.167 297,283.5C 297.667,308.5 297.667,333.5 297,358.5C 295.395,364.438 291.562,367.938 285.5,369C 281.833,369.667 278.167,369.667 274.5,369C 265.009,365.338 256.176,360.505 248,354.5C 247.333,353.167 246.667,351.833 246,350.5C 245.019,324.413 245.352,298.413 247,272.5C 248.873,270.291 251.04,268.458 253.5,267C 272.833,256 292.167,245 311.5,234C 315.261,233.262 318.928,233.595 322.5,235C 342.749,246.707 362.916,258.541 383,270.5C 384.751,272.49 385.751,274.823 386,277.5C 386.667,301.167 386.667,324.833 386,348.5C 385.3,352.066 383.467,354.9 380.5,357C 360.442,368.022 340.775,379.522 321.5,391.5 Z"/></g>
<g><path style="opacity:0.75" fill="#689f63" d="M 401.5,264.5 C 414.129,263.624 418.963,269.291 416,281.5C 411.832,287.486 406.332,288.986 399.5,286C 394.789,281.86 393.289,276.694 395,270.5C 396.494,267.686 398.66,265.686 401.5,264.5 Z M 401.5,267.5 C 408.649,266.163 412.982,268.996 414.5,276C 412.585,283.136 410.919,283.136 409.5,276C 410.576,274.274 410.743,272.441 410,270.5C 407.281,269.556 404.448,269.223 401.5,269.5C 401.5,273.833 401.5,278.167 401.5,282.5C 402.5,282.5 403.5,282.5 404.5,282.5C 405.052,276.031 406.052,276.031 407.5,282.5C 410.598,282.413 410.932,282.913 408.5,284C 401.645,285.323 397.645,282.489 396.5,275.5C 397.371,272.304 399.038,269.637 401.5,267.5 Z M 404.5,272.5 C 407.797,272.329 408.131,272.995 405.5,274.5C 404.702,274.043 404.369,273.376 404.5,272.5 Z"/></g>
<g><path style="opacity:0.949" fill="#689f63" d="M 322.5,281.5 C 330.238,281.144 337.905,281.644 345.5,283C 356.228,286.155 360.895,293.155 359.5,304C 356.167,304.667 352.833,304.667 349.5,304C 348.463,297.63 344.797,293.963 338.5,293C 331.946,291.919 325.612,292.586 319.5,295C 315.673,298.095 315.673,301.095 319.5,304C 328.421,306.037 337.421,307.703 346.5,309C 361.012,311.848 365.845,320.348 361,334.5C 357.713,340.067 352.879,343.567 346.5,345C 334.011,347.733 322.011,346.399 310.5,341C 304.687,336.205 302.02,330.039 302.5,322.5C 306.182,322.335 309.848,322.501 313.5,323C 315.447,331.324 320.78,335.324 329.5,335C 335.293,335.535 340.959,334.869 346.5,333C 351.13,329.549 351.463,325.883 347.5,322C 337.242,319.638 326.909,317.638 316.5,316C 304.512,311.056 301.345,302.556 307,290.5C 311.274,285.785 316.441,282.785 322.5,281.5 Z"/></g>
</svg>
